<svg width="24" height="24" viewBox="0 0 24 24" fill="none" xmlns="http://www.w3.org/2000/svg">
<g clip-path="url(#clip0_5214_128803)">
<path d="M8.20663 11.7567C8.29961 11.8496 8.37337 11.9599 8.42369 12.0813C8.47401 12.2027 8.49992 12.3328 8.49992 12.4642C8.49992 12.5956 8.47401 12.7258 8.42369 12.8472C8.37337 12.9686 8.29961 13.0789 8.20663 13.1717L6.37963 14.9997H15.9996C16.2648 14.9997 16.5192 15.1051 16.7067 15.2926C16.8943 15.4802 16.9996 15.7345 16.9996 15.9997C16.9996 16.2649 16.8943 16.5193 16.7067 16.7068C16.5192 16.8944 16.2648 16.9997 15.9996 16.9997H6.37963L8.20763 18.8277C8.30054 18.9206 8.37425 19.0308 8.42456 19.1521C8.47487 19.2735 8.50079 19.4035 8.50083 19.5349C8.50088 19.6662 8.47505 19.7963 8.42483 19.9177C8.37461 20.039 8.30097 20.1493 8.20813 20.2422C8.11529 20.3351 8.00505 20.4089 7.88372 20.4592C7.76239 20.5095 7.63233 20.5354 7.50098 20.5354C7.36964 20.5355 7.23956 20.5097 7.1182 20.4594C6.99683 20.4092 6.88654 20.3356 6.79363 20.2427L3.25763 16.7067C3.07016 16.5192 2.96484 16.2649 2.96484 15.9997C2.96484 15.7346 3.07016 15.4803 3.25763 15.2927L6.79363 11.7567C6.98116 11.5693 7.23547 11.4639 7.50063 11.4639C7.76579 11.4639 8.0201 11.5693 8.20763 11.7567H8.20663ZM15.7926 3.75673C15.9648 3.58455 16.1939 3.48112 16.4369 3.46584C16.68 3.45056 16.9202 3.52448 17.1126 3.67373L17.2066 3.75673L20.7426 7.29273C20.9148 7.46492 21.0182 7.69402 21.0335 7.93705C21.0488 8.18007 20.9749 8.42032 20.8256 8.61273L20.7426 8.70673L17.2066 12.2417C17.0267 12.4211 16.7852 12.5252 16.5312 12.533C16.2773 12.5407 16.0299 12.4515 15.8394 12.2835C15.6488 12.1154 15.5293 11.8812 15.5052 11.6283C15.4811 11.3753 15.5542 11.1227 15.7096 10.9217L15.7926 10.8277L17.6196 8.99973H7.99963C7.74475 8.99945 7.4996 8.90185 7.31426 8.72688C7.12893 8.55191 7.0174 8.31278 7.00246 8.05833C6.98752 7.80389 7.07031 7.55335 7.2339 7.3579C7.39749 7.16244 7.62953 7.03683 7.88263 7.00673L7.99963 6.99973H17.6206L15.7926 5.16973C15.6052 4.9822 15.4998 4.72789 15.4998 4.46273C15.4998 4.19756 15.6052 3.94426 15.7926 3.75673Z" fill="black"/>
</g>
<defs>
<clipPath id="clip0_5214_128803">
<rect width="24" height="24" fill="white"/>
</clipPath>
</defs>
</svg>
