<svg width="15" height="11" viewBox="0 0 15 11" fill="none" xmlns="http://www.w3.org/2000/svg">
<path d="M12.0495 1.03806C11.1629 0.624731 10.2029 0.324731 9.20288 0.151398C9.19411 0.151117 9.18539 0.152763 9.17733 0.156218C9.16926 0.159674 9.16206 0.164856 9.15621 0.171398C9.03621 0.391398 8.89621 0.678064 8.80288 0.898064C7.74221 0.738064 6.66354 0.738064 5.60288 0.898064C5.50954 0.671398 5.36954 0.391398 5.24288 0.171398C5.23621 0.158065 5.21621 0.151398 5.19621 0.151398C4.19621 0.324731 3.24288 0.624731 2.34954 1.03806C2.34288 1.03806 2.33621 1.04473 2.32954 1.0514C0.516211 3.76473 0.016211 6.40473 0.262878 9.01806C0.262878 9.0314 0.269544 9.04473 0.282878 9.0514C1.48288 9.9314 2.63621 10.4647 3.77621 10.8181C3.79621 10.8247 3.81621 10.8181 3.82288 10.8047C4.08954 10.4381 4.32954 10.0514 4.53621 9.64473C4.54954 9.61806 4.53621 9.5914 4.50954 9.58473C4.12954 9.43806 3.76954 9.26473 3.41621 9.06473C3.38954 9.0514 3.38954 9.0114 3.40954 8.9914C3.48288 8.93806 3.55621 8.87807 3.62954 8.82473C3.64288 8.8114 3.66288 8.8114 3.67621 8.81806C5.96954 9.86473 8.44288 9.86473 10.7095 8.81806C10.7229 8.8114 10.7429 8.8114 10.7562 8.82473C10.8295 8.88473 10.9029 8.93806 10.9762 8.99806C11.0029 9.01806 11.0029 9.05806 10.9695 9.0714C10.6229 9.27806 10.2562 9.44473 9.87621 9.5914C9.84954 9.59806 9.84288 9.6314 9.84954 9.6514C10.0629 10.0581 10.3029 10.4447 10.5629 10.8114C10.5829 10.8181 10.6029 10.8247 10.6229 10.8181C11.7695 10.4647 12.9229 9.9314 14.1229 9.0514C14.1362 9.04473 14.1429 9.0314 14.1429 9.01806C14.4362 5.99806 13.6562 3.37806 12.0762 1.0514C12.0695 1.04473 12.0629 1.03806 12.0495 1.03806ZM4.88288 7.42473C4.19621 7.42473 3.62288 6.7914 3.62288 6.0114C3.62288 5.2314 4.18288 4.59806 4.88288 4.59806C5.58954 4.59806 6.14954 5.23806 6.14288 6.0114C6.14288 6.7914 5.58288 7.42473 4.88288 7.42473ZM9.52954 7.42473C8.84288 7.42473 8.26954 6.7914 8.26954 6.0114C8.26954 5.2314 8.82954 4.59806 9.52954 4.59806C10.2362 4.59806 10.7962 5.23806 10.7895 6.0114C10.7895 6.7914 10.2362 7.42473 9.52954 7.42473Z" fill="currentColor"/>
</svg>
